<?xml version="1.0" encoding="UTF-8"?>
<svg width="548px" height="167px" viewBox="0 0 548 167" version="1.1" xmlns="http://www.w3.org/2000/svg" xmlns:xlink="http://www.w3.org/1999/xlink">

    <title>Voyager Instruments Company</title>
    <desc>INSIGHT FDS</desc>
    <defs></defs>
    <g id="Page-1" stroke="none" stroke-width="1" fill="none" fill-rule="evenodd">
        <g id="Artboard">
            <g id="Voyager-Final-Logo-2017">
                <path d="M202.9331,151.7499 L202.9331,162.9379 L204.6521,163.2649 L204.6521,163.4369 L199.9601,163.4369 L199.9601,163.2649 L201.0761,162.9379 L201.0761,151.8189 L199.9601,151.5619 L199.9601,151.4069 L204.8071,151.4069 C207.5211,151.4069 209.4121,152.6959 209.4121,154.8449 C209.4121,156.9919 207.5211,158.2819 204.8071,158.2819 L203.4131,158.2819 L203.1901,158.0569 L203.1901,157.9379 L204.5831,157.9379 C206.3021,157.9379 207.5211,156.9059 207.5211,154.8449 C207.5211,152.7809 206.3021,151.7499 204.5831,151.7499 L202.9331,151.7499 Z" id="Fill-1" fill="#132A3B"></path>
                <path d="M211.5859,155.4105 L210.5549,155.1875 L210.5549,154.9985 L213.1499,154.7235 L213.3739,154.9645 L213.3219,156.4765 L213.3739,156.5285 C213.3739,156.5285 214.1799,154.7755 215.8819,154.7755 C216.9819,154.7755 217.8769,155.5145 217.8769,156.6305 C217.8769,157.4385 217.4129,157.7825 216.8279,157.7825 C216.1749,157.7825 215.7279,157.3365 215.7279,156.6305 L215.7279,155.2555 C215.6589,155.2045 215.5729,155.1875 215.4539,155.1875 C214.0949,155.1875 213.3739,157.1465 213.3739,157.1465 L213.3739,162.9385 L214.9199,163.2645 L214.9199,163.4365 L210.5549,163.4365 L210.5549,163.2645 L211.5859,162.9385 L211.5859,155.4105 Z" id="Fill-3" fill="#132A3B"></path>
                <path d="M223.0542,163.265 C224.5502,163.265 225.5632,161.855 225.5632,159.158 C225.5632,156.442 224.5502,155.034 223.0542,155.034 C221.5762,155.034 220.5462,156.442 220.5462,159.158 C220.5462,161.855 221.5762,163.265 223.0542,163.265 M223.0542,154.775 C225.6152,154.775 227.3852,156.494 227.3852,159.158 C227.3852,161.839 225.6152,163.523 223.0542,163.523 C220.4782,163.523 218.7062,161.839 218.7062,159.158 C218.7062,156.494 220.4782,154.775 223.0542,154.775" id="Fill-5" fill="#132A3B"></path>
                <polygon id="Fill-7" fill="#132A3B" points="228.4937 155.3412 227.4797 155.0152 227.4797 154.8442 231.3987 154.8442 231.3987 155.0152 230.3497 155.3412 233.1687 161.5802 235.9517 155.3412 234.5257 155.0152 234.5257 154.8442 237.4317 154.8442 237.4317 155.0152 236.3307 155.3412 232.6867 163.4372 232.1887 163.4372"></polygon>
                <path d="M239.7573,151.2172 C240.4623,151.2172 240.9963,151.7332 240.9963,152.4382 C240.9963,153.1422 240.4623,153.6582 239.7573,153.6582 C239.0543,153.6582 238.5373,153.1422 238.5373,152.4382 C238.5373,151.7332 239.0543,151.2172 239.7573,151.2172 L239.7573,151.2172 Z M237.9543,163.2652 L238.9853,162.9382 L238.9853,155.4102 L237.9543,155.1882 L237.9543,154.9992 L240.5493,154.7232 L240.7723,154.9642 L240.7723,162.9382 L241.8023,163.2652 L241.8023,163.4372 L237.9543,163.4372 L237.9543,163.2652 Z" id="Fill-9" fill="#132A3B"></path>
                <path d="M249.0244,155.4804 C248.4234,155.1884 247.8904,155.0334 247.3234,155.0334 C245.6054,155.0334 244.6414,156.5114 244.6414,159.0724 C244.6414,161.3754 245.5864,162.9384 247.0654,162.9384 C247.8374,162.9384 248.5244,162.5604 249.0244,161.9594 L249.0244,155.4804 Z M251.8244,163.0934 L251.8244,163.2824 L249.2474,163.4884 L249.0244,163.2654 L249.0764,162.4064 L249.0244,162.3544 C248.3364,163.0754 247.3754,163.5224 246.2054,163.5224 C243.8844,163.5224 242.8034,161.8044 242.8034,159.3464 C242.8034,156.4254 244.3674,154.7754 247.0134,154.7754 C247.9064,154.7754 248.5244,154.9994 249.0244,155.2384 L249.0244,151.6304 L247.9934,151.4074 L247.9934,151.2174 L250.5714,150.9424 L250.7944,151.1834 L250.7944,162.8704 L251.8244,163.0934 Z" id="Fill-11" fill="#132A3B"></path>
                <path d="M254.3076,151.2172 C255.0126,151.2172 255.5456,151.7332 255.5456,152.4382 C255.5456,153.1422 255.0126,153.6582 254.3076,153.6582 C253.6036,153.6582 253.0876,153.1422 253.0876,152.4382 C253.0876,151.7332 253.6036,151.2172 254.3076,151.2172 L254.3076,151.2172 Z M252.5036,163.2652 L253.5346,162.9382 L253.5346,155.4102 L252.5036,155.1882 L252.5036,154.9992 L255.0996,154.7232 L255.3226,154.9642 L255.3226,162.9382 L256.3536,163.2652 L256.3536,163.4372 L252.5036,163.4372 L252.5036,163.2652 Z" id="Fill-13" fill="#132A3B"></path>
                <path d="M259.8276,162.9384 L260.7396,163.2654 L260.7396,163.4374 L257.0096,163.4374 L257.0096,163.2654 L258.0396,162.9384 L258.0396,155.4104 L257.0096,155.1884 L257.0096,154.9994 L259.6056,154.7234 L259.8276,154.9644 L259.7766,156.0124 L259.8276,156.0644 C260.7036,155.2224 262.0786,154.7754 263.1966,154.7754 C265.0166,154.7754 265.8086,155.9614 265.8086,157.7304 L265.8086,162.9384 L266.8396,163.2654 L266.8396,163.4374 L263.1096,163.4374 L263.1096,163.2654 L264.0216,162.9384 L264.0216,158.0234 C264.0216,156.5284 263.5406,155.3754 262.2506,155.3754 C261.3906,155.3754 260.4296,155.8064 259.8276,156.4414 L259.8276,162.9384 Z" id="Fill-15" fill="#132A3B"></path>
                <path d="M271.7285,160.1205 C272.8445,160.1205 273.6345,159.2615 273.6345,157.5945 C273.6345,155.9445 272.8445,155.0675 271.7285,155.0675 C270.6275,155.0675 269.8365,155.9265 269.8365,157.5945 C269.8365,159.2785 270.6275,160.1205 271.7285,160.1205 L271.7285,160.1205 Z M269.8365,163.5915 C269.2865,164.2105 269.1655,164.6065 269.1655,165.0355 C269.1655,166.2555 270.1115,166.6335 271.6245,166.6335 C273.6345,166.6335 274.9255,165.9625 274.9255,164.8115 C274.9255,164.1755 274.5295,163.6255 273.4455,163.6255 L270.3525,163.6255 C270.1645,163.6255 269.9925,163.6085 269.8365,163.5915 L269.8365,163.5915 Z M274.0465,155.3755 C274.8555,155.8575 275.3375,156.6305 275.3375,157.6115 C275.3375,159.3115 273.8585,160.3775 271.7285,160.3775 C270.8515,160.3775 270.0775,160.2055 269.4935,159.8625 C269.1495,160.2575 269.0125,160.6875 269.0125,161.0485 C269.0125,161.6835 269.4415,161.9945 270.3695,161.9945 L273.2735,161.9945 C275.1995,161.9945 276.0235,162.7665 276.0235,164.1065 C276.0235,165.8945 274.4425,166.9255 271.2635,166.9255 C269.0805,166.9255 267.7395,166.4275 267.7395,165.3955 C267.7395,164.6395 268.4265,164.0205 269.3225,163.5055 C268.5315,163.2825 268.1185,162.7485 268.1185,161.8735 C268.1185,161.0485 268.5135,160.4985 269.2865,159.7425 C268.5665,159.2615 268.1345,158.5385 268.1345,157.6115 C268.1345,155.8915 269.6145,154.8095 271.7285,154.8095 C271.9345,154.8095 272.1395,154.8275 272.3455,154.8445 L275.9555,154.8445 L275.9555,155.0155 L274.7865,155.3755 L274.0465,155.3755 Z" id="Fill-17" fill="#132A3B"></path>
                <path d="M283.8877,151.7499 L283.8877,163.0939 L286.3977,163.0939 C288.6637,163.0939 290.2987,161.2199 290.2987,157.4379 C290.2987,153.6419 288.6637,151.7499 286.3977,151.7499 L283.8877,151.7499 Z M286.3977,151.4069 C289.8337,151.4069 292.2397,153.6759 292.2397,157.4219 C292.2397,161.2029 289.8337,163.4369 286.3977,163.4369 L280.9137,163.4369 L280.9137,163.2989 L282.0307,163.0249 L282.0307,151.8189 L280.9137,151.5619 L280.9137,151.4069 L286.3977,151.4069 Z" id="Fill-19" fill="#132A3B"></path>
                <path d="M294.2793,155.3412 L293.2633,155.0152 L293.2633,154.8442 L297.1833,154.8442 L297.1833,155.0152 L296.1333,155.3412 L298.9533,161.5802 L301.7363,155.3412 L300.3093,155.0152 L300.3093,154.8442 L303.2143,154.8442 L303.2143,155.0152 L302.1153,155.3412 L298.4693,163.4372 C297.4403,165.7222 296.7533,166.9082 295.5653,166.9082 C294.9823,166.9082 294.0533,166.6332 294.0533,165.6532 C294.0533,165.0352 294.4153,164.7092 294.9323,164.7092 C295.4793,164.7092 295.8593,165.0702 295.8593,165.6532 L295.8593,166.3412 C295.9273,166.3752 295.9783,166.3922 296.0493,166.3922 C296.7183,166.3922 297.3553,165.1212 298.0263,163.5912 L294.2793,155.3412 Z" id="Fill-21" fill="#132A3B"></path>
                <path d="M306.5557,162.9384 L307.4667,163.2654 L307.4667,163.4374 L303.7377,163.4374 L303.7377,163.2654 L304.7677,162.9384 L304.7677,155.4104 L303.7377,155.1884 L303.7377,154.9994 L306.3337,154.7234 L306.5557,154.9644 L306.5047,156.0124 L306.5557,156.0644 C307.4327,155.2224 308.8067,154.7754 309.9257,154.7754 C311.7467,154.7754 312.5377,155.9614 312.5377,157.7304 L312.5377,162.9384 L313.5687,163.2654 L313.5687,163.4374 L309.8377,163.4374 L309.8377,163.2654 L310.7487,162.9384 L310.7487,158.0234 C310.7487,156.5284 310.2687,155.3754 308.9797,155.3754 C308.1197,155.3754 307.1587,155.8064 306.5557,156.4414 L306.5557,162.9384 Z" id="Fill-23" fill="#132A3B"></path>
                <path d="M320.1377,158.952 C317.7157,159.329 316.5657,159.467 316.5657,161.323 C316.5657,162.389 317.1167,162.938 317.9917,162.938 C318.7657,162.938 319.5737,162.56 320.1377,161.959 L320.1377,158.952 Z M320.1377,162.354 C319.3497,163.094 318.2497,163.541 317.0657,163.541 C315.4657,163.541 314.7447,162.749 314.7447,161.546 C314.7447,159.535 316.7707,159.244 320.1377,158.694 L320.1377,157.078 C320.1377,155.892 319.5057,155.067 318.3527,155.067 C317.9077,155.067 317.4937,155.188 317.0827,155.463 L317.0827,156.855 C317.0827,157.559 316.6347,157.988 316.0347,157.988 C315.4497,157.988 315.0027,157.611 315.0027,156.906 C315.0027,155.55 316.6677,154.792 318.3867,154.792 C320.6897,154.792 321.9297,155.927 321.9297,157.404 L321.9297,162.646 C321.9297,162.973 322.0657,163.075 322.3397,163.075 C322.5127,163.075 322.7707,163.025 322.9087,162.887 L323.0287,163.006 C322.6997,163.334 322.1507,163.471 321.4637,163.471 C320.7417,163.471 320.2767,163.214 320.1907,162.406 L320.1377,162.354 Z" id="Fill-25" fill="#132A3B"></path>
                <path d="M326.4355,162.9384 L327.3155,163.2654 L327.3155,163.4374 L323.6195,163.4374 L323.6195,163.2654 L324.6505,162.9384 L324.6505,155.4104 L323.6195,155.1884 L323.6195,154.9994 L326.2135,154.7234 L326.4355,154.9644 L326.3845,156.0124 L326.4355,156.0644 C327.2275,155.2224 328.4655,154.7754 329.4455,154.7754 C330.5285,154.7754 331.1975,155.2914 331.5255,156.1154 C332.4185,155.2384 333.7425,154.7754 334.7895,154.7754 C336.4755,154.7754 337.1615,155.9444 337.1615,157.7304 L337.1615,162.9384 L338.1925,163.2654 L338.1925,163.4374 L334.4995,163.4374 L334.4995,163.2654 L335.3745,162.9384 L335.3745,158.0234 C335.3745,156.5114 334.9795,155.3754 333.8105,155.3754 C333.1215,155.3754 332.2285,155.7204 331.6115,156.4074 C331.7295,156.7864 331.8005,157.2674 331.8005,157.7304 L331.8005,162.9384 L332.6755,163.2654 L332.6755,163.4374 L329.1345,163.4374 L329.1345,163.2654 L330.0135,162.9384 L330.0135,158.0234 C330.0135,156.5284 329.6165,155.3754 328.5185,155.3754 C327.8115,155.3754 326.9685,155.7884 326.4355,156.4944 L326.4355,162.9384 Z" id="Fill-27" fill="#132A3B"></path>
                <path d="M340.6641,151.2172 C341.3671,151.2172 341.8991,151.7332 341.8991,152.4382 C341.8991,153.1422 341.3671,153.6582 340.6641,153.6582 C339.9591,153.6582 339.4411,153.1422 339.4411,152.4382 C339.4411,151.7332 339.9591,151.2172 340.6641,151.2172 L340.6641,151.2172 Z M338.8571,163.2652 L339.8901,162.9382 L339.8901,155.4102 L338.8571,155.1882 L338.8571,154.9992 L341.4531,154.7232 L341.6761,154.9642 L341.6761,162.9382 L342.7051,163.2652 L342.7051,163.4372 L338.8571,163.4372 L338.8571,163.2652 Z" id="Fill-29" fill="#132A3B"></path>
                <path d="M349.5654,155.4804 C349.0704,155.1694 348.6064,155.0334 348.1094,155.0334 C346.4744,155.0334 345.5464,156.5454 345.5464,158.8834 C345.5464,161.4264 346.5954,163.0064 348.7434,163.0064 C349.7554,163.0064 350.5834,162.6634 351.2684,161.9764 L351.4574,162.1824 C350.6154,163.0244 349.5504,163.5224 348.0374,163.5224 C345.1334,163.5224 343.7084,161.7524 343.7084,159.1754 C343.7084,156.4764 345.2534,154.7754 348.0724,154.7754 C349.8784,154.7754 351.6994,155.5494 351.6994,156.9924 C351.6994,157.7304 351.2334,158.0924 350.6324,158.0924 C350.0004,158.0924 349.5654,157.6634 349.5654,156.9574 L349.5654,155.4804 Z" id="Fill-31" fill="#132A3B"></path>
                <polygon id="Fill-33" fill="#132A3B" points="370.8203 162.9384 371.8833 163.2654 371.8833 163.4374 367.8653 163.4374 367.8653 163.2654 368.9803 162.9384 368.2593 152.9884 363.8403 163.4374 363.2753 163.4374 358.7913 152.9714 358.0503 162.9724 359.0993 163.2994 359.0993 163.4374 356.5713 163.4374 356.5713 163.2994 357.6883 162.9724 358.4963 151.9044 357.3803 151.5794 357.3803 151.4074 360.0093 151.4074 364.3063 161.5464 368.5673 151.4074 371.0943 151.4074 371.0943 151.5794 370.0293 151.9044"></polygon>
                <path d="M374.6631,158.8832 L379.2351,158.6252 C379.2351,156.2362 378.4801,155.0332 377.2071,155.0332 C375.9711,155.0332 374.7311,156.2182 374.6631,158.8832 L374.6631,158.8832 Z M374.6631,159.1402 C374.6631,161.5462 375.7631,162.9902 377.9971,162.9902 C378.9601,162.9902 379.7851,162.7152 380.5231,161.9762 L380.7131,162.1822 C379.8691,163.0252 378.7711,163.5232 377.2591,163.5232 C374.2681,163.5232 372.8231,161.6672 372.8231,159.2432 C372.8231,156.5112 374.6451,154.7752 377.1381,154.7752 C379.3741,154.7752 380.9881,156.1842 380.9881,158.2302 C380.9881,158.4362 380.9711,158.6942 380.9031,158.9172 L380.6621,159.1402 L374.6631,159.1402 Z" id="Fill-35" fill="#132A3B"></path>
                <path d="M387.9922,158.952 C385.5682,159.329 384.4162,159.467 384.4162,161.323 C384.4162,162.389 384.9662,162.938 385.8422,162.938 C386.6172,162.938 387.4252,162.56 387.9922,161.959 L387.9922,158.952 Z M387.9922,162.354 C387.2012,163.094 386.1002,163.541 384.9132,163.541 C383.3162,163.541 382.5932,162.749 382.5932,161.546 C382.5932,159.535 384.6232,159.244 387.9922,158.694 L387.9922,157.078 C387.9922,155.892 387.3542,155.067 386.2032,155.067 C385.7562,155.067 385.3442,155.188 384.9312,155.463 L384.9312,156.855 C384.9312,157.559 384.4832,157.988 383.8832,157.988 C383.3002,157.988 382.8522,157.611 382.8522,156.906 C382.8522,155.55 384.5162,154.792 386.2372,154.792 C388.5412,154.792 389.7772,155.927 389.7772,157.404 L389.7772,162.646 C389.7772,162.973 389.9162,163.075 390.1902,163.075 C390.3612,163.075 390.6192,163.025 390.7582,162.887 L390.8782,163.006 C390.5522,163.334 390.0002,163.471 389.3152,163.471 C388.5932,163.471 388.1272,163.214 388.0432,162.406 L387.9922,162.354 Z" id="Fill-37" fill="#132A3B"></path>
                <path d="M391.9834,161.2372 L392.3454,161.2372 C392.7054,162.8872 393.8594,163.2652 394.8744,163.2652 C396.1964,163.2652 397.0894,162.6112 397.0894,161.5292 C397.0894,160.4802 396.2324,160.2232 394.8894,159.8802 C393.4804,159.5022 392.0354,159.1222 392.0354,157.2842 C392.0354,155.8412 392.9134,154.7752 395.0774,154.7752 C395.8844,154.7752 396.6604,154.9642 397.2774,155.2912 L397.6374,154.9992 L397.8104,155.1702 L397.8104,157.0262 L397.4664,157.0262 C397.1254,155.3762 395.9714,155.0332 395.1474,155.0332 C393.9614,155.0332 393.2394,155.7032 393.2394,156.6312 C393.2394,157.5942 394.0114,157.8682 395.1654,158.1952 C396.6764,158.6592 398.2944,159.1222 398.2944,160.9962 C398.2944,162.4572 397.3294,163.5232 394.9064,163.5232 C393.9964,163.5232 393.1894,163.3512 392.5164,162.9902 L392.1574,163.2822 L391.9834,163.1102 L391.9834,161.2372 Z" id="Fill-39" fill="#132A3B"></path>
                <path d="M409.1094,163.0936 L409.1094,163.2816 L406.5144,163.4886 L406.2904,163.2646 L406.3404,162.2856 L406.2904,162.2336 C405.4294,163.1106 404.1584,163.5226 403.0764,163.5226 C401.2704,163.5226 400.3614,162.4056 400.3614,160.8066 L400.3614,155.4106 L399.3304,155.1876 L399.3304,154.9986 L401.9244,154.7236 L402.1504,154.9646 L402.1504,160.5146 C402.1504,161.9066 402.6474,162.9386 403.9354,162.9386 C404.7244,162.9386 405.6544,162.5596 406.2904,161.8556 L406.2904,155.4106 L405.2594,155.1876 L405.2594,154.9986 L407.8384,154.7236 L408.0794,154.9646 L408.0794,162.8696 L409.1094,163.0936 Z" id="Fill-41" fill="#132A3B"></path>
                <path d="M410.7988,155.4105 L409.7688,155.1875 L409.7688,154.9985 L412.3628,154.7235 L412.5878,154.9645 L412.5348,156.4765 L412.5878,156.5285 C412.5878,156.5285 413.3968,154.7755 415.0968,154.7755 C416.1948,154.7755 417.0888,155.5145 417.0888,156.6305 C417.0888,157.4385 416.6258,157.7825 416.0428,157.7825 C415.3898,157.7825 414.9428,157.3365 414.9428,156.6305 L414.9428,155.2555 C414.8728,155.2045 414.7868,155.1875 414.6658,155.1875 C413.3088,155.1875 412.5878,157.1465 412.5878,157.1465 L412.5878,162.9385 L414.1338,163.2645 L414.1338,163.4365 L409.7688,163.4365 L409.7688,163.2645 L410.7988,162.9385 L410.7988,155.4105 Z" id="Fill-43" fill="#132A3B"></path>
                <path d="M419.7588,158.8832 L424.3308,158.6252 C424.3308,156.2362 423.5738,155.0332 422.3038,155.0332 C421.0658,155.0332 419.8298,156.2182 419.7588,158.8832 L419.7588,158.8832 Z M419.7588,159.1402 C419.7588,161.5462 420.8608,162.9902 423.0928,162.9902 C424.0578,162.9902 424.8798,162.7152 425.6198,161.9762 L425.8088,162.1822 C424.9648,163.0252 423.8668,163.5232 422.3548,163.5232 C419.3648,163.5232 417.9188,161.6672 417.9188,159.2432 C417.9188,156.5112 419.7428,154.7752 422.2338,154.7752 C424.4698,154.7752 426.0848,156.1842 426.0848,158.2302 C426.0848,158.4362 426.0688,158.6942 425.9988,158.9172 L425.7588,159.1402 L419.7588,159.1402 Z" id="Fill-45" fill="#132A3B"></path>
                <path d="M429.9941,162.9384 L430.8691,163.2654 L430.8691,163.4374 L427.1761,163.4374 L427.1761,163.2654 L428.2051,162.9384 L428.2051,155.4104 L427.1761,155.1884 L427.1761,154.9994 L429.7721,154.7234 L429.9941,154.9644 L429.9431,156.0124 L429.9941,156.0644 C430.7841,155.2224 432.0221,154.7754 433.0021,154.7754 C434.0841,154.7754 434.7551,155.2914 435.0811,156.1154 C435.9741,155.2384 437.2981,154.7754 438.3481,154.7754 C440.0281,154.7754 440.7191,155.9444 440.7191,157.7304 L440.7191,162.9384 L441.7491,163.2654 L441.7491,163.4374 L438.0531,163.4374 L438.0531,163.2654 L438.9321,162.9384 L438.9321,158.0234 C438.9321,156.5114 438.5351,155.3754 437.3671,155.3754 C436.6801,155.3754 435.7881,155.7204 435.1661,156.4074 C435.2871,156.7864 435.3551,157.2674 435.3551,157.7304 L435.3551,162.9384 L436.2321,163.2654 L436.2321,163.4374 L432.6911,163.4374 L432.6911,163.2654 L433.5661,162.9384 L433.5661,158.0234 C433.5661,156.5284 433.1751,155.3754 432.0711,155.3754 C431.3681,155.3754 430.5261,155.7884 429.9941,156.4944 L429.9941,162.9384 Z" id="Fill-47" fill="#132A3B"></path>
                <path d="M444.3379,158.8832 L448.9109,158.6252 C448.9109,156.2362 448.1549,155.0332 446.8809,155.0332 C445.6449,155.0332 444.4059,156.2182 444.3379,158.8832 L444.3379,158.8832 Z M444.3379,159.1402 C444.3379,161.5462 445.4389,162.9902 447.6709,162.9902 C448.6349,162.9902 449.4599,162.7152 450.1989,161.9762 L450.3889,162.1822 C449.5459,163.0252 448.4449,163.5232 446.9349,163.5232 C443.9419,163.5232 442.4979,161.6672 442.4979,159.2432 C442.4979,156.5112 444.3209,154.7752 446.8149,154.7752 C449.0479,154.7752 450.6639,156.1842 450.6639,158.2302 C450.6639,158.4362 450.6459,158.6942 450.5769,158.9172 L450.3349,159.1402 L444.3379,159.1402 Z" id="Fill-49" fill="#132A3B"></path>
                <path d="M454.5713,162.9384 L455.4823,163.2654 L455.4823,163.4374 L451.7553,163.4374 L451.7553,163.2654 L452.7863,162.9384 L452.7863,155.4104 L451.7553,155.1884 L451.7553,154.9994 L454.3493,154.7234 L454.5713,154.9644 L454.5203,156.0124 L454.5713,156.0644 C455.4493,155.2224 456.8243,154.7754 457.9413,154.7754 C459.7603,154.7754 460.5523,155.9614 460.5523,157.7304 L460.5523,162.9384 L461.5843,163.2654 L461.5843,163.4374 L457.8543,163.4374 L457.8543,163.2654 L458.7643,162.9384 L458.7643,158.0234 C458.7643,156.5284 458.2833,155.3754 456.9963,155.3754 C456.1343,155.3754 455.1733,155.8064 454.5713,156.4414 L454.5713,162.9384 Z" id="Fill-51" fill="#132A3B"></path>
                <path d="M461.8486,155.0497 C463.0856,154.7577 463.9456,153.8467 464.4606,152.8677 L464.6846,153.0907 L464.6846,154.8447 L467.5036,154.8447 L467.5036,155.1877 L464.6846,155.1877 L464.6846,161.2197 C464.6846,162.2857 465.1486,162.9897 466.1116,162.9897 C466.6286,162.9897 467.1076,162.7657 467.4846,162.3887 L467.6736,162.5777 C467.1246,163.1447 466.3686,163.5227 465.3376,163.5227 C463.6866,163.5227 462.8986,162.5437 462.8986,161.2197 L462.8986,155.1877 L461.8486,155.1877 L461.8486,155.0497 Z" id="Fill-53" fill="#132A3B"></path>
                <path d="M472.8379,160.6361 L473.1469,160.6361 C473.6819,162.8871 475.5209,163.2821 476.6889,163.2821 C478.5759,163.2821 479.7299,162.3201 479.7299,160.6701 C479.7299,159.0721 478.6299,158.7101 476.7239,158.1611 C474.7799,157.5941 472.8729,157.0611 472.8729,154.7071 C472.8729,152.8161 474.0929,151.3031 476.8259,151.3031 C477.9929,151.3031 478.9239,151.5961 479.7119,152.1121 L480.4339,151.6121 L480.6079,151.7841 L480.6079,154.2251 L480.2959,154.2251 C479.7989,151.9911 478.1149,151.5621 477.0829,151.5621 C475.3999,151.5621 474.3319,152.5581 474.3319,153.9851 C474.3319,155.4801 475.4689,155.8231 477.1499,156.3391 C479.1789,156.9751 481.1909,157.6631 481.1909,160.0511 C481.1909,162.0101 479.8839,163.5411 476.8589,163.5411 C475.6239,163.5411 474.6269,163.2651 473.7479,162.7331 L473.0099,163.2481 L472.8379,163.0751 L472.8379,160.6361 Z" id="Fill-55" fill="#132A3B"></path>
                <path d="M487.04,163.265 C488.537,163.265 489.549,161.855 489.549,159.158 C489.549,156.442 488.537,155.034 487.04,155.034 C485.562,155.034 484.53,156.442 484.53,159.158 C484.53,161.855 485.562,163.265 487.04,163.265 M487.04,154.775 C489.603,154.775 491.372,156.494 491.372,159.158 C491.372,161.839 489.603,163.523 487.04,163.523 C484.465,163.523 482.692,161.839 482.692,159.158 C482.692,156.494 484.465,154.775 487.04,154.775" id="Fill-57" fill="#132A3B"></path>
                <polygon id="Fill-59" fill="#132A3B" points="492.377 163.265 493.409 162.938 493.409 151.63 492.377 151.407 492.377 151.217 494.972 150.942 495.195 151.183 495.195 162.938 496.226 163.265 496.226 163.437 492.377 163.437"></polygon>
                <path d="M506.6631,163.0936 L506.6631,163.2816 L504.0641,163.4886 L503.8421,163.2646 L503.8931,162.2856 L503.8421,162.2336 C502.9811,163.1106 501.7131,163.5226 500.6301,163.5226 C498.8241,163.5226 497.9131,162.4056 497.9131,160.8066 L497.9131,155.4106 L496.8821,155.1876 L496.8821,154.9986 L499.4791,154.7236 L499.6991,154.9646 L499.6991,160.5146 C499.6991,161.9066 500.1971,162.9386 501.4901,162.9386 C502.2781,162.9386 503.2061,162.5596 503.8421,161.8556 L503.8421,155.4106 L502.8111,155.1876 L502.8111,154.9986 L505.3911,154.7236 L505.6281,154.9646 L505.6281,162.8696 L506.6631,163.0936 Z" id="Fill-61" fill="#132A3B"></path>
                <path d="M507.3037,155.0497 C508.5417,154.7577 509.4017,153.8467 509.9157,152.8677 L510.1407,153.0907 L510.1407,154.8447 L512.9597,154.8447 L512.9597,155.1877 L510.1407,155.1877 L510.1407,161.2197 C510.1407,162.2857 510.6047,162.9897 511.5667,162.9897 C512.0827,162.9897 512.5627,162.7657 512.9437,162.3887 L513.1297,162.5777 C512.5817,163.1447 511.8247,163.5227 510.7947,163.5227 C509.1447,163.5227 508.3537,162.5437 508.3537,161.2197 L508.3537,155.1877 L507.3037,155.1877 L507.3037,155.0497 Z" id="Fill-63" fill="#132A3B"></path>
                <path d="M515.7314,151.2172 C516.4344,151.2172 516.9694,151.7332 516.9694,152.4382 C516.9694,153.1422 516.4344,153.6582 515.7314,153.6582 C515.0274,153.6582 514.5094,153.1422 514.5094,152.4382 C514.5094,151.7332 515.0274,151.2172 515.7314,151.2172 L515.7314,151.2172 Z M513.9264,163.2652 L514.9564,162.9382 L514.9564,155.4102 L513.9264,155.1882 L513.9264,154.9992 L516.5214,154.7232 L516.7444,154.9642 L516.7444,162.9382 L517.7764,163.2652 L517.7764,163.4372 L513.9264,163.4372 L513.9264,163.2652 Z" id="Fill-65" fill="#132A3B"></path>
                <path d="M523.124,163.265 C524.618,163.265 525.631,161.855 525.631,159.158 C525.631,156.442 524.618,155.034 523.124,155.034 C521.645,155.034 520.614,156.442 520.614,159.158 C520.614,161.855 521.645,163.265 523.124,163.265 M523.124,154.775 C525.685,154.775 527.455,156.494 527.455,159.158 C527.455,161.839 525.685,163.523 523.124,163.523 C520.548,163.523 518.775,161.839 518.775,159.158 C518.775,156.494 520.548,154.775 523.124,154.775" id="Fill-67" fill="#132A3B"></path>
                <path d="M531.2783,162.9384 L532.1893,163.2654 L532.1893,163.4374 L528.4603,163.4374 L528.4603,163.2654 L529.4913,162.9384 L529.4913,155.4104 L528.4603,155.1884 L528.4603,154.9994 L531.0543,154.7234 L531.2783,154.9644 L531.2243,156.0124 L531.2783,156.0644 C532.1553,155.2224 533.5293,154.7754 534.6463,154.7754 C536.4663,154.7754 537.2593,155.9614 537.2593,157.7304 L537.2593,162.9384 L538.2903,163.2654 L538.2903,163.4374 L534.5603,163.4374 L534.5603,163.2654 L535.4693,162.9384 L535.4693,158.0234 C535.4693,156.5284 534.9873,155.3754 533.7003,155.3754 C532.8403,155.3754 531.8783,155.8064 531.2783,156.4414 L531.2783,162.9384 Z" id="Fill-69" fill="#132A3B"></path>
                <path d="M539.4648,161.2372 L539.8268,161.2372 C540.1888,162.8872 541.3388,163.2652 542.3528,163.2652 C543.6758,163.2652 544.5688,162.6112 544.5688,161.5292 C544.5688,160.4802 543.7098,160.2232 542.3688,159.8802 C540.9608,159.5022 539.5168,159.1222 539.5168,157.2842 C539.5168,155.8412 540.3948,154.7752 542.5588,154.7752 C543.3678,154.7752 544.1388,154.9642 544.7588,155.2912 L545.1208,154.9992 L545.2918,155.1702 L545.2918,157.0262 L544.9498,157.0262 C544.6038,155.3762 543.4528,155.0332 542.6258,155.0332 C541.4438,155.0332 540.7208,155.7032 540.7208,156.6312 C540.7208,157.5942 541.4928,157.8682 542.6448,158.1952 C544.1568,158.6592 545.7718,159.1222 545.7718,160.9962 C545.7718,162.4572 544.8108,163.5232 542.3888,163.5232 C541.4768,163.5232 540.6678,163.3512 539.9978,162.9902 L539.6378,163.2822 L539.4648,163.1102 L539.4648,161.2372 Z" id="Fill-71" fill="#132A3B"></path>
                <polygon id="Fill-73" fill="#5894AD" points="205.8574 140.1596 208.4974 140.9696 208.4974 141.3946 198.5784 141.3946 198.5784 140.9696 201.3454 140.1596 201.3454 112.8286 198.5784 112.0196 198.5784 111.5946 208.4974 111.5946 208.4974 112.0196 205.8574 112.8286"></polygon>
                <polygon id="Fill-75" fill="#5894AD" points="213.0532 140.2455 213.0532 112.8285 210.2872 112.0195 210.2872 111.5945 217.8662 111.5945 234.6802 135.0085 234.6802 112.7435 231.9132 111.9775 231.9132 111.5945 238.3412 111.5945 238.3412 111.9775 235.5752 112.7435 235.5752 141.3945 234.2552 141.3945 213.9492 113.2115 213.9492 140.2455 216.7162 141.0545 216.7162 141.3945 210.2872 141.3945 210.2872 141.0545"></polygon>
                <path d="M241.4985,134.455 L242.2665,134.455 C243.5855,140.032 248.1405,141.011 251.0355,141.011 C255.7185,141.011 258.5705,138.627 258.5705,134.54 C258.5705,130.58 255.8465,129.687 251.1215,128.325 C246.3105,126.92 241.5835,125.601 241.5835,119.767 C241.5835,115.085 244.6065,111.339 251.3755,111.339 C254.2705,111.339 256.5695,112.062 258.5275,113.34 L260.3155,112.104 L260.7425,112.531 L260.7425,118.576 L259.9765,118.576 C258.7415,113.042 254.5685,111.978 252.0155,111.978 C247.8425,111.978 245.2035,114.446 245.2035,117.979 C245.2035,121.684 248.0135,122.535 252.1835,123.812 C257.2085,125.388 262.1895,127.09 262.1895,133.007 C262.1895,137.862 258.9545,141.65 251.4615,141.65 C248.3965,141.65 245.9255,140.969 243.7555,139.648 L241.9245,140.927 L241.4985,140.5 L241.4985,134.455 Z" id="Fill-77" fill="#5894AD"></path>
                <polygon id="Fill-79" fill="#5894AD" points="279.2021 112.4457 279.2021 140.1597 281.9681 140.9687 281.9681 141.3947 271.8361 141.3947 271.8361 140.9687 274.6031 140.1597 274.6031 112.4457 266.6851 112.4457 264.6841 116.8307 264.0031 116.8307 264.0031 111.5937 289.8451 111.5937 289.8451 116.8307 289.1211 116.8307 287.1641 112.4457"></polygon>
                <path d="M299.3877,112.4457 L299.3877,126.7917 L304.2417,126.7917 C307.9867,126.7917 310.6687,124.4087 310.6687,119.6407 C310.6687,114.8297 307.9867,112.4457 304.2417,112.4457 L299.3877,112.4457 Z M307.6467,127.4297 C308.9647,127.8987 309.8187,129.1337 310.5827,130.4957 L316.2017,140.2877 L318.6737,140.9687 L318.6737,141.3947 L312.0747,141.3947 L304.3267,127.6447 L299.3877,127.6447 L299.3877,140.1597 L302.1537,140.9687 L302.1537,141.3947 L292.0217,141.3947 L292.0217,140.9687 L294.7887,140.1597 L294.7887,112.6157 L292.0217,111.9777 L292.0217,111.5937 L304.7937,111.5937 C311.0517,111.5937 315.3507,114.5737 315.3507,119.6817 C315.3507,123.9407 312.3297,126.8347 307.6467,127.4297 L307.6467,127.4297 Z" id="Fill-81" fill="#5894AD"></path>
                <path d="M344.0498,130.3256 C344.0498,137.3926 339.2818,141.6506 332.3848,141.6506 C325.4478,141.6506 320.6368,137.3076 320.6368,130.3256 L320.6368,112.8286 L317.8698,112.0196 L317.8698,111.5946 L328.0008,111.5946 L328.0008,112.0196 L325.2358,112.8286 L325.2358,130.3256 C325.2358,136.6266 328.9798,139.9896 334.0898,139.9896 C339.4088,139.9896 343.1998,136.3706 343.1998,130.3256 L343.1998,112.7426 L340.4318,111.9776 L340.4318,111.5946 L346.8178,111.5946 L346.8178,111.9776 L344.0498,112.7426 L344.0498,130.3256 Z" id="Fill-83" fill="#5894AD"></path>
                <polygon id="Fill-85" fill="#5894AD" points="383.5645 140.1596 386.2055 140.9696 386.2055 141.3946 376.2445 141.3946 376.2445 140.9696 379.0085 140.1596 377.2225 115.5116 366.2815 141.3946 364.8765 141.3946 353.7655 115.4686 351.9335 140.2456 354.5325 141.0546 354.5325 141.3946 348.2725 141.3946 348.2725 141.0546 351.0415 140.2456 353.0425 112.8286 350.2755 112.0196 350.2755 111.5946 356.7885 111.5946 367.4285 136.7116 377.9895 111.5946 384.2465 111.5946 384.2465 112.0196 381.6085 112.8286"></polygon>
                <polygon id="Fill-87" fill="#5894AD" points="409.3096 140.5433 411.3086 136.2013 411.9906 136.2013 411.9906 141.3953 388.6626 141.3953 388.6626 141.0543 391.4296 140.3723 391.4296 112.6163 388.6626 111.9783 388.6626 111.5943 411.5656 111.5943 411.5656 116.8303 410.8846 116.8303 408.8846 112.4453 396.0256 112.4453 396.0256 125.5583 406.4136 125.5583 407.3086 122.2373 407.9476 122.2373 407.9476 129.7723 407.3086 129.7723 406.4136 126.4513 396.0256 126.4513 396.0256 140.5433"></polygon>
                <polygon id="Fill-89" fill="#5894AD" points="417.7861 140.2455 417.7861 112.8285 415.0201 112.0195 415.0201 111.5945 422.5991 111.5945 439.4141 135.0085 439.4141 112.7435 436.6451 111.9775 436.6451 111.5945 443.0741 111.5945 443.0741 111.9775 440.3081 112.7435 440.3081 141.3945 438.9861 141.3945 418.6801 113.2115 418.6801 140.2455 421.4481 141.0545 421.4481 141.3945 415.0201 141.3945 415.0201 141.0545"></polygon>
                <polygon id="Fill-91" fill="#5894AD" points="460.4932 112.4457 460.4932 140.1597 463.2612 140.9687 463.2612 141.3947 453.1292 141.3947 453.1292 140.9687 455.8942 140.1597 455.8942 112.4457 447.9762 112.4457 445.9772 116.8307 445.2982 116.8307 445.2982 111.5937 471.1342 111.5937 471.1342 116.8307 470.4132 116.8307 468.4552 112.4457"></polygon>
                <path d="M513.5225,137.35 C510.7125,140.202 507.0505,141.65 502.4965,141.65 C493.5555,141.65 487.8085,135.861 487.8085,126.495 C487.8085,117.17 493.5975,111.339 502.3255,111.339 C505.5615,111.339 508.8805,112.147 511.1815,113.892 L512.9685,112.829 L513.3945,113.254 L513.3945,119.13 L512.6695,119.13 C511.4355,113.211 505.9445,112.318 503.1775,112.318 C496.6635,112.318 492.6195,117.13 492.6195,126.325 C492.6195,134.711 496.2795,140.288 504.0725,140.288 C507.3475,140.288 510.5845,139.351 513.0545,136.839 L513.5225,137.35 Z" id="Fill-93" fill="#5894AD"></path>
                <path d="M531.3252,141.0111 C536.8562,141.0111 540.8172,136.1151 540.8172,126.5361 C540.8172,116.9151 536.8562,111.9781 531.3252,111.9781 C525.7472,111.9781 521.7882,116.9151 521.7882,126.5361 C521.7882,136.1151 525.7472,141.0111 531.3252,141.0111 M531.3252,111.3391 C539.7522,111.3391 545.6722,117.2141 545.6722,126.4941 C545.6722,135.8611 539.7522,141.6501 531.3252,141.6501 C522.8532,141.6501 516.9762,135.8611 516.9762,126.4941 C516.9762,117.2141 522.8532,111.3391 531.3252,111.3391" id="Fill-95" fill="#5894AD"></path>
                <polygon id="Fill-97" fill="#132A3B" points="36.5371 5.9857 24.5171 2.4167 24.5171 0.5407 69.7861 0.5407 69.7861 2.4167 57.3881 5.9857 102.0981 111.3687 120.3271 67.7587 124.4591 67.7587 97.0241 132.0287 90.8261 132.0287"></polygon>
                <polygon id="Fill-99" fill="#132A3B" points="128.3984 129.2123 133.4594 130.9923 133.4594 131.9253 114.4444 131.9253 114.4444 130.9923 119.7484 129.2123 119.7484 54.1273 114.4444 52.3473 114.4444 51.4143 133.4594 51.4143 133.4594 52.3473 128.3984 54.1273"></polygon>
                <path d="M0.4819,140.0468 C0.4819,140.0468 172.2199,191.8608 186.1449,108.0488 C193.9899,60.8308 151.1979,29.1028 107.2449,16.2418 C72.4939,6.0738 24.5179,4.9738 13.9569,39.0088 C-3.7151,95.9618 103.7549,133.1328 135.3679,99.4068 C141.7489,92.5998 143.7009,83.8068 143.7009,83.8068 C143.7009,83.8068 138.1369,95.6928 130.3139,101.2008 C116.8229,110.6998 72.8589,107.1948 43.3549,88.5728 C17.6309,72.3348 6.2959,41.4008 29.0849,22.1478 C40.4919,12.5098 81.2329,8.2578 133.4589,38.1648 C180.7659,65.2558 186.0729,88.7578 184.2549,100.3448 C175.3609,157.0228 83.9449,155.2728 37.5339,143.4788 C29.7169,141.4908 0.4819,140.0468 0.4819,140.0468" id="Fill-101" fill="#5894AD"></path>
                <path d="M6.915,40.4535 C8.179,47.6575 15.044,52.4725 22.248,51.2115 C29.452,49.9465 34.267,43.0835 33.004,35.8795 C31.741,28.6755 24.879,23.8595 17.673,25.1215 C10.47,26.3825 5.654,33.2455 6.915,40.4535" id="Fill-103" fill="#132A3B"></path>
                <polygon id="Fill-105" fill="#132A3B" points="39.1807 12.1234 58.2857 8.0994 63.3677 20.0804 44.4607 24.3834"></polygon>
                <polygon id="Fill-107" fill="#132A3B" points="180.7842 19.4266 174.5222 17.5676 174.5222 16.5896 198.1022 16.5896 198.1022 17.5676 191.6432 19.4266 214.9312 74.3156 238.0202 19.4266 229.4112 17.5676 229.4112 16.5896 246.8262 16.5896 246.8262 17.5676 240.1742 19.4266 212.2882 85.0776 209.0592 85.0776"></polygon>
                <path d="M262.2109,84.099 C270.7259,84.099 276.4969,76.076 276.4969,60.714 C276.4969,45.256 270.7259,37.234 262.2109,37.234 C253.7979,37.234 247.9289,45.256 247.9289,60.714 C247.9289,76.076 253.7979,84.099 262.2109,84.099 M262.2109,35.766 C276.7909,35.766 286.8679,45.55 286.8679,60.714 C286.8679,75.978 276.7909,85.567 262.2109,85.567 C247.5369,85.567 237.4589,75.978 237.4589,60.714 C237.4589,45.55 247.5369,35.766 262.2109,35.766" id="Fill-109" fill="#132A3B"></path>
                <path d="M294.127,38.994 L288.354,37.134 L288.354,36.156 L310.662,36.156 L310.662,37.134 L304.692,38.994 L320.738,74.511 L336.589,38.994 L328.471,37.134 L328.471,36.156 L345.005,36.156 L345.005,37.134 L338.742,38.994 L318,85.077 C312.13,98.09 308.215,104.841 301.464,104.841 C298.139,104.841 292.856,103.276 292.856,97.698 C292.856,94.177 294.91,92.318 297.845,92.318 C300.976,92.318 303.129,94.371 303.129,97.698 L303.129,101.612 C303.521,101.809 303.813,101.906 304.204,101.906 C308.02,101.906 311.642,94.666 315.457,85.958 L294.127,38.994 Z" id="Fill-111" fill="#132A3B"></path>
                <path d="M376.8301,59.5409 C363.0341,61.6929 356.4781,62.4759 356.4781,73.0429 C356.4781,79.1099 359.6091,82.2399 364.6001,82.2399 C369.0021,82.2399 373.6011,80.0879 376.8301,76.6639 L376.8301,59.5409 Z M376.8301,78.9129 C372.3291,83.1209 366.0661,85.6649 359.3151,85.6649 C350.2161,85.6649 346.1081,81.1649 346.1081,74.3159 C346.1081,62.8679 357.6531,61.2039 376.8301,58.0739 L376.8301,48.8759 C376.8301,42.1249 373.2091,37.4289 366.6551,37.4289 C364.1101,37.4289 361.7611,38.1129 359.4151,39.6799 L359.4151,47.6039 C359.4151,51.6169 356.8701,54.0629 353.4461,54.0629 C350.1191,54.0629 347.5751,51.9099 347.5751,47.8979 C347.5751,40.1689 357.0671,35.8639 366.8501,35.8639 C379.9601,35.8639 387.0061,42.3209 387.0061,50.7359 L387.0061,80.5779 C387.0061,82.4369 387.7861,83.0229 389.3541,83.0229 C390.3331,83.0229 391.8001,82.7289 392.5821,81.9479 L393.2671,82.6319 C391.4081,84.4909 388.2761,85.2719 384.3631,85.2719 C380.2551,85.2719 377.6111,83.8049 377.1231,79.2079 L376.8301,78.9129 Z" id="Fill-113" fill="#132A3B"></path>
                <path d="M421.6602,66.1942 C428.0182,66.1942 432.5192,61.3032 432.5192,51.8122 C432.5192,42.4182 428.0182,37.4292 421.6602,37.4292 C415.3982,37.4292 410.8962,42.3202 410.8962,51.8122 C410.8962,61.4002 415.3982,66.1942 421.6602,66.1942 L421.6602,66.1942 Z M410.8962,85.9582 C407.7662,89.4802 407.0832,91.7312 407.0832,94.1762 C407.0832,101.1222 412.4632,103.2762 421.0742,103.2762 C432.5192,103.2762 439.8592,99.4602 439.8592,92.9042 C439.8592,89.2852 437.6072,86.1532 431.4442,86.1532 L413.8332,86.1532 C412.7552,86.1532 411.7772,86.0562 410.8962,85.9582 L410.8962,85.9582 Z M434.8682,39.1912 C439.4672,41.9292 442.2062,46.3332 442.2062,51.9092 C442.2062,61.5952 433.7932,67.6622 421.6602,67.6622 C416.6702,67.6622 412.2662,66.6842 408.9402,64.7272 C406.9822,66.9762 406.2022,69.4242 406.2022,71.4782 C406.2022,75.0972 408.6472,76.8592 413.9312,76.8592 L430.4662,76.8592 C441.4242,76.8592 446.1212,81.2612 446.1212,88.8932 C446.1212,99.0692 437.1182,104.9392 419.0172,104.9392 C406.5942,104.9392 398.9612,102.1012 398.9612,96.2312 C398.9612,91.9262 402.8752,88.4032 407.9612,85.4692 C403.4622,84.1962 401.1132,81.1642 401.1132,76.1752 C401.1132,71.4782 403.3632,68.3462 407.7662,64.0412 C403.6562,61.3032 401.2112,57.1922 401.2112,51.9092 C401.2112,42.1252 409.6252,35.9612 421.6602,35.9612 C422.8332,35.9612 424.0082,36.0592 425.1812,36.1562 L445.7282,36.1562 L445.7282,37.1342 L439.0752,39.1912 L434.8682,39.1912 Z" id="Fill-115" fill="#132A3B"></path>
                <path d="M462.4561,59.1488 L488.4821,57.6818 C488.4821,44.0828 484.1781,37.2338 476.9361,37.2338 C469.8931,37.2338 462.8471,43.9848 462.4561,59.1488 L462.4561,59.1488 Z M462.4561,60.6168 C462.4561,74.3158 468.7191,82.5338 481.4361,82.5338 C486.9151,82.5338 491.6121,80.9668 495.8191,76.7608 L496.8951,77.9348 C492.1011,82.7288 485.8401,85.5668 477.2281,85.5668 C460.2061,85.5668 451.9861,74.9998 451.9861,61.2038 C451.9861,45.6478 462.3571,35.7658 476.5451,35.7658 C489.2641,35.7658 498.4611,43.7888 498.4611,55.4308 C498.4611,56.6058 498.3631,58.0738 497.9721,59.3458 L496.6031,60.6168 L462.4561,60.6168 Z" id="Fill-117" fill="#132A3B"></path>
                <path d="M510.4932,39.3851 L504.6232,38.1131 L504.6232,37.0371 L519.3972,35.4721 L520.6692,36.8421 L520.3772,45.4521 L520.6692,45.7441 C520.6692,45.7441 525.2672,35.7661 534.9542,35.7661 C541.2162,35.7661 546.3022,39.9721 546.3022,46.3331 C546.3022,50.9301 543.6622,52.8871 540.3352,52.8871 C536.6162,52.8871 534.0722,50.3441 534.0722,46.3331 L534.0722,38.5041 C533.6812,38.2121 533.1922,38.1131 532.5092,38.1131 C524.7792,38.1131 520.6692,49.2681 520.6692,49.2681 L520.6692,82.2401 L529.4732,84.0991 L529.4732,85.0771 L504.6232,85.0771 L504.6232,84.0991 L510.4932,82.2401 L510.4932,39.3851 Z" id="Fill-119" fill="#132A3B"></path>
                <path d="M200.7432,96.7914 L288.8002,96.7914" id="Stroke-121" stroke="#5894AD" stroke-width="2.151"></path>
                <path d="M317.582,96.7914 L394.489,96.7914" id="Stroke-123" stroke="#5894AD" stroke-width="1.901"></path>
                <path d="M449.6367,96.7914 L545.9617,96.7914" id="Stroke-125" stroke="#5894AD" stroke-width="2.413"></path>
            </g>
        </g>
    </g>
</svg>