<svg id="Layer_1" data-name="Layer 1" xmlns="http://www.w3.org/2000/svg" viewBox="0 0 547.44 169.37"><defs><style>.cls-1{fill:#02334e;}.cls-2{fill:#569bbe;}.cls-3,.cls-4,.cls-5{fill:none;stroke:#569bbe;stroke-miterlimit:10;}.cls-3{stroke-width:2.15px;}.cls-4{stroke-width:1.9px;}.cls-5{stroke-width:2.41px;}</style></defs><title>Voyager Final Logo vs2-2017</title><path class="cls-1" d="M231.93,181.74v11.19l1.72.33v.17H229v-.17l1.12-.33V181.81l-1.12-.26v-.15h4.85c2.71,0,4.61,1.29,4.61,3.44s-1.89,3.44-4.61,3.44h-1.39l-.22-.22v-.12h1.39a3.1,3.1,0,0,0,0-6.19Z" transform="translate(-29.48 -27.54)"/><path class="cls-1" d="M240.59,185.4l-1-.22V185l2.6-.28.22.24-.05,1.51.05.05a3.05,3.05,0,0,1,2.51-1.75,1.87,1.87,0,0,1,2,1.86,1,1,0,0,1-1,1.15,1.06,1.06,0,0,1-1.1-1.15v-1.37a.44.44,0,0,0-.27-.07c-1.36,0-2.08,2-2.08,2v5.79l1.55.33v.17h-4.36v-.17l1-.33Z" transform="translate(-29.48 -27.54)"/><path class="cls-1" d="M252.05,184.76a4.37,4.37,0,1,1-4.35,4.38A4.12,4.12,0,0,1,252.05,184.76Zm0,8.49c1.5,0,2.51-1.41,2.51-4.11s-1-4.12-2.51-4.12-2.51,1.41-2.51,4.12S250.58,193.25,252.05,193.25Z" transform="translate(-29.48 -27.54)"/><path class="cls-1" d="M257.49,185.33l-1-.33v-.17h3.92V185l-1,.33,2.82,6.24,2.78-6.24-1.43-.33v-.17h2.91V185l-1.1.33-3.64,8.1h-.5Z" transform="translate(-29.48 -27.54)"/><path class="cls-1" d="M267,193.25l1-.33V185.4l-1-.22V185l2.6-.28.22.24v8l1,.33v.17H267Zm1.8-12a1.22,1.22,0,1,1,0,2.44,1.22,1.22,0,0,1,0-2.44Z" transform="translate(-29.48 -27.54)"/><path class="cls-1" d="M280.82,193.08v.19l-2.58.21-.22-.22.05-.86-.05-.05a3.8,3.8,0,0,1-2.82,1.17c-2.32,0-3.4-1.72-3.4-4.18,0-2.92,1.56-4.57,4.21-4.57a4.41,4.41,0,0,1,2,.46v-3.61l-1-.22v-.19l2.58-.27.22.24v11.69Zm-2.8-7.61a3.8,3.8,0,0,0-1.7-.45c-1.72,0-2.68,1.48-2.68,4,0,2.3.95,3.87,2.42,3.87a2.55,2.55,0,0,0,2-1Z" transform="translate(-29.48 -27.54)"/><path class="cls-1" d="M281.5,193.25l1-.33V185.4l-1-.22V185l2.6-.28.22.24v8l1,.33v.17H281.5Zm1.8-12a1.22,1.22,0,1,1,0,2.44,1.22,1.22,0,0,1,0-2.44Z" transform="translate(-29.48 -27.54)"/><path class="cls-1" d="M288.83,192.92l.91.33v.17H286v-.17l1-.33V185.4l-1-.22V185l2.6-.28.22.24-.05,1,.05.05a5.13,5.13,0,0,1,3.37-1.29c1.82,0,2.61,1.19,2.61,3v5.21l1,.33v.17h-3.73v-.17l.91-.33V188c0-1.49-.48-2.65-1.77-2.65a3.54,3.54,0,0,0-2.42,1.07Z" transform="translate(-29.48 -27.54)"/><path class="cls-1" d="M303,185.36a2.52,2.52,0,0,1,1.29,2.24c0,1.7-1.48,2.77-3.61,2.77a4.44,4.44,0,0,1-2.24-.52A1.83,1.83,0,0,0,298,191c0,.64.43.95,1.36.95h2.9c1.93,0,2.75.77,2.75,2.11,0,1.79-1.58,2.82-4.76,2.82-2.18,0-3.52-.5-3.52-1.53,0-.76.69-1.37,1.58-1.89a1.53,1.53,0,0,1-1.2-1.63,2.88,2.88,0,0,1,1.17-2.13,2.47,2.47,0,0,1-1.15-2.13c0-1.72,1.48-2.8,3.59-2.8.21,0,.41,0,.62,0H305V185l-1.17.36Zm-4.21,8.22a2,2,0,0,0-.67,1.44c0,1.22.95,1.6,2.46,1.6,2,0,3.3-.67,3.3-1.82,0-.64-.4-1.19-1.48-1.19h-3.09A4.51,4.51,0,0,1,298.84,193.58Zm1.89-3.47c1.12,0,1.91-.86,1.91-2.53s-.79-2.53-1.91-2.53-1.89.86-1.89,2.53S299.63,190.11,300.73,190.11Z" transform="translate(-29.48 -27.54)"/><path class="cls-1" d="M315.4,181.39c3.44,0,5.84,2.27,5.84,6s-2.41,6-5.84,6h-5.48v-.14L311,193V181.81l-1.12-.26v-.15Zm-2.51.34v11.34h2.51c2.27,0,3.9-1.87,3.9-5.66s-1.63-5.69-3.9-5.69Z" transform="translate(-29.48 -27.54)"/><path class="cls-1" d="M323.28,185.33l-1-.33v-.17h3.92V185l-1,.33,2.82,6.24,2.78-6.24-1.43-.33v-.17h2.9V185l-1.1.33-3.65,8.1c-1,2.29-1.72,3.47-2.9,3.47a1.35,1.35,0,0,1-1.51-1.25.84.84,0,0,1,.88-.94.88.88,0,0,1,.93.94v.69a.39.39,0,0,0,.19.05c.67,0,1.31-1.27,2-2.8Z" transform="translate(-29.48 -27.54)"/><path class="cls-1" d="M335.56,192.92l.91.33v.17h-3.73v-.17l1-.33V185.4l-1-.22V185l2.6-.28.22.24-.05,1,.05.05a5.13,5.13,0,0,1,3.37-1.29c1.82,0,2.61,1.19,2.61,3v5.21l1,.33v.17h-3.73v-.17l.91-.33V188c0-1.49-.48-2.65-1.77-2.65a3.54,3.54,0,0,0-2.42,1.07Z" transform="translate(-29.48 -27.54)"/><path class="cls-1" d="M349.14,192.34a4.49,4.49,0,0,1-3.07,1.19c-1.6,0-2.32-.79-2.32-2,0-2,2-2.3,5.39-2.85v-1.62a1.77,1.77,0,0,0-1.79-2,2.21,2.21,0,0,0-1.27.4v1.39a1,1,0,0,1-1,1.13,1,1,0,0,1-1-1.08c0-1.36,1.67-2.11,3.38-2.11,2.3,0,3.54,1.13,3.54,2.61v5.24c0,.33.14.43.41.43a.87.87,0,0,0,.57-.19l.12.12a2.19,2.19,0,0,1-1.56.46c-.72,0-1.19-.26-1.27-1.06Zm0-3.4c-2.42.38-3.57.52-3.57,2.37,0,1.07.55,1.62,1.43,1.62a3,3,0,0,0,2.15-1Z" transform="translate(-29.48 -27.54)"/><path class="cls-1" d="M355.44,192.92l.88.33v.17h-3.7v-.17l1-.33V185.4l-1-.22V185l2.59-.28.22.24-.05,1,.05.05a4.37,4.37,0,0,1,3-1.29,2.05,2.05,0,0,1,2.08,1.34,4.93,4.93,0,0,1,3.26-1.34c1.69,0,2.37,1.17,2.37,3v5.21l1,.33v.17H363.5v-.17l.88-.33V188c0-1.51-.4-2.65-1.56-2.65a3.12,3.12,0,0,0-2.2,1,4.63,4.63,0,0,1,.19,1.32v5.21l.88.33v.17h-3.54v-.17l.88-.33V188c0-1.49-.4-2.65-1.5-2.65a2.77,2.77,0,0,0-2.08,1.12Z" transform="translate(-29.48 -27.54)"/><path class="cls-1" d="M367.86,193.25l1-.33V185.4l-1-.22V185l2.6-.28.22.24v8l1,.33v.17h-3.85Zm1.81-12a1.22,1.22,0,1,1,0,2.44,1.22,1.22,0,1,1,0-2.44Z" transform="translate(-29.48 -27.54)"/><path class="cls-1" d="M378.57,185.47a2.65,2.65,0,0,0-1.46-.45c-1.63,0-2.56,1.51-2.56,3.85,0,2.54,1,4.12,3.2,4.12a3.4,3.4,0,0,0,2.53-1l.19.21a4.55,4.55,0,0,1-3.42,1.34c-2.9,0-4.33-1.77-4.33-4.35s1.55-4.4,4.36-4.4c1.81,0,3.63.77,3.63,2.22a1,1,0,0,1-1.07,1.1,1,1,0,0,1-1.07-1.13Z" transform="translate(-29.48 -27.54)"/><path class="cls-1" d="M399.82,192.92l1.06.33v.17h-4v-.17l1.12-.33-.72-10-4.42,10.45h-.56L387.79,183l-.74,10,1,.33v.14h-2.53v-.14l1.12-.33.81-11.07-1.12-.33v-.17H389l4.3,10.14,4.26-10.14h2.53v.17l-1.07.33Z" transform="translate(-29.48 -27.54)"/><path class="cls-1" d="M403.66,189.13c0,2.41,1.1,3.85,3.33,3.85a3.35,3.35,0,0,0,2.53-1l.19.21a4.63,4.63,0,0,1-3.45,1.34c-3,0-4.44-1.86-4.44-4.28a4.17,4.17,0,0,1,4.31-4.47c2.24,0,3.85,1.41,3.85,3.45a2.48,2.48,0,0,1-.08.69l-.24.22Zm0-.26,4.57-.26c0-2.39-.75-3.59-2-3.59S403.73,186.21,403.66,188.87Z" transform="translate(-29.48 -27.54)"/><path class="cls-1" d="M417,192.34a4.51,4.51,0,0,1-3.08,1.19c-1.6,0-2.32-.79-2.32-2,0-2,2-2.3,5.4-2.85v-1.62a1.77,1.77,0,0,0-1.79-2,2.22,2.22,0,0,0-1.27.4v1.39a1,1,0,0,1-1,1.13,1,1,0,0,1-1-1.08c0-1.36,1.66-2.11,3.38-2.11,2.3,0,3.54,1.13,3.54,2.61v5.24c0,.33.14.43.41.43a.87.87,0,0,0,.57-.19l.12.12a2.18,2.18,0,0,1-1.56.46c-.72,0-1.19-.26-1.27-1.06Zm0-3.4c-2.42.38-3.58.52-3.58,2.37,0,1.07.55,1.62,1.43,1.62a3.06,3.06,0,0,0,2.15-1Z" transform="translate(-29.48 -27.54)"/><path class="cls-1" d="M421,191.22h.36a2.36,2.36,0,0,0,2.53,2c1.32,0,2.22-.65,2.22-1.74s-.86-1.31-2.2-1.65-2.85-.76-2.85-2.6c0-1.44.88-2.51,3-2.51a4.77,4.77,0,0,1,2.2.52l.36-.29.17.17V187h-.34a2.24,2.24,0,0,0-2.32-2c-1.19,0-1.91.67-1.91,1.6s.77,1.24,1.93,1.56c1.51.46,3.13.93,3.13,2.8,0,1.46-1,2.53-3.39,2.53a5,5,0,0,1-2.39-.53l-.36.29-.17-.17Z" transform="translate(-29.48 -27.54)"/><path class="cls-1" d="M438.11,193.08v.19l-2.59.21-.22-.22.05-1-.05-.05a4.63,4.63,0,0,1-3.21,1.29,2.49,2.49,0,0,1-2.71-2.72v-5.4l-1-.22V185l2.59-.28.23.24v5.55c0,1.39.5,2.42,1.79,2.42a3.31,3.31,0,0,0,2.35-1.08V185.4l-1-.22V185l2.58-.28.24.24v7.91Z" transform="translate(-29.48 -27.54)"/><path class="cls-1" d="M439.8,185.4l-1-.22V185l2.59-.28.22.24-.05,1.51.05.05a3.06,3.06,0,0,1,2.51-1.75,1.87,1.87,0,0,1,2,1.86,1,1,0,0,1-1,1.15,1.06,1.06,0,0,1-1.1-1.15v-1.37a.45.45,0,0,0-.28-.07c-1.36,0-2.08,2-2.08,2v5.79l1.55.33v.17h-4.37v-.17l1-.33Z" transform="translate(-29.48 -27.54)"/><path class="cls-1" d="M448.76,189.13c0,2.41,1.1,3.85,3.33,3.85a3.36,3.36,0,0,0,2.53-1l.19.21a4.63,4.63,0,0,1-3.45,1.34c-3,0-4.44-1.86-4.44-4.28a4.18,4.18,0,0,1,4.31-4.47c2.24,0,3.85,1.41,3.85,3.45a2.41,2.41,0,0,1-.09.69l-.24.22Zm0-.26,4.57-.26c0-2.39-.76-3.59-2-3.59S448.83,186.21,448.76,188.87Z" transform="translate(-29.48 -27.54)"/><path class="cls-1" d="M459,192.92l.88.33v.17h-3.69v-.17l1-.33V185.4l-1-.22V185l2.6-.28.22.24-.05,1,.05.05a4.36,4.36,0,0,1,3-1.29,2.05,2.05,0,0,1,2.08,1.34,4.93,4.93,0,0,1,3.27-1.34c1.68,0,2.37,1.17,2.37,3v5.21l1,.33v.17h-3.7v-.17l.88-.33V188c0-1.51-.4-2.65-1.56-2.65a3.14,3.14,0,0,0-2.2,1,4.53,4.53,0,0,1,.19,1.32v5.21l.88.33v.17h-3.54v-.17l.88-.33V188c0-1.49-.39-2.65-1.5-2.65a2.76,2.76,0,0,0-2.08,1.12Z" transform="translate(-29.48 -27.54)"/><path class="cls-1" d="M473.34,189.13c0,2.41,1.1,3.85,3.33,3.85a3.36,3.36,0,0,0,2.53-1l.19.21a4.63,4.63,0,0,1-3.45,1.34c-3,0-4.44-1.86-4.44-4.28a4.18,4.18,0,0,1,4.32-4.47c2.23,0,3.85,1.41,3.85,3.45a2.45,2.45,0,0,1-.09.69l-.24.22Zm0-.26,4.57-.26c0-2.39-.76-3.59-2-3.59S473.41,186.21,473.34,188.87Z" transform="translate(-29.48 -27.54)"/><path class="cls-1" d="M483.57,192.92l.91.33v.17h-3.73v-.17l1-.33V185.4l-1-.22V185l2.59-.28.22.24-.05,1,.05.05a5.14,5.14,0,0,1,3.37-1.29c1.82,0,2.61,1.19,2.61,3v5.21l1,.33v.17h-3.73v-.17l.91-.33V188c0-1.49-.48-2.65-1.77-2.65a3.54,3.54,0,0,0-2.42,1.07Z" transform="translate(-29.48 -27.54)"/><path class="cls-1" d="M490.85,185a4.08,4.08,0,0,0,2.61-2.18l.22.22v1.75h2.82v.34h-2.82v6c0,1.07.46,1.77,1.43,1.77a1.94,1.94,0,0,0,1.37-.6l.19.19a3.12,3.12,0,0,1-2.34.94,2.18,2.18,0,0,1-2.44-2.3v-6h-1Z" transform="translate(-29.48 -27.54)"/><path class="cls-1" d="M501.84,190.62h.31a3.35,3.35,0,0,0,3.54,2.65c1.89,0,3-1,3-2.61s-1.1-2-3-2.51-3.85-1.1-3.85-3.45c0-1.89,1.22-3.4,4-3.4a5.1,5.1,0,0,1,2.89.81l.72-.5.17.17v2.44h-.31a3.13,3.13,0,0,0-3.21-2.66,2.46,2.46,0,0,0-2.75,2.42c0,1.5,1.14,1.84,2.82,2.35,2,.64,4,1.32,4,3.71,0,2-1.31,3.49-4.33,3.49a5.8,5.8,0,0,1-3.11-.81l-.74.52-.17-.17Z" transform="translate(-29.48 -27.54)"/><path class="cls-1" d="M516,184.76a4.37,4.37,0,1,1-4.35,4.38A4.12,4.12,0,0,1,516,184.76Zm0,8.49c1.5,0,2.51-1.41,2.51-4.11s-1-4.12-2.51-4.12-2.51,1.41-2.51,4.12S514.56,193.25,516,193.25Z" transform="translate(-29.48 -27.54)"/><path class="cls-1" d="M521.38,193.25l1-.33V181.62l-1-.22v-.19l2.59-.27.22.24v11.76l1,.33v.17h-3.85Z" transform="translate(-29.48 -27.54)"/><path class="cls-1" d="M535.66,193.08v.19l-2.6.21-.22-.22.05-1-.05-.05a4.62,4.62,0,0,1-3.21,1.29,2.49,2.49,0,0,1-2.72-2.72v-5.4l-1-.22V185l2.6-.28.22.24v5.55c0,1.39.5,2.42,1.79,2.42a3.3,3.3,0,0,0,2.35-1.08V185.4l-1-.22V185l2.58-.28.24.24v7.91Z" transform="translate(-29.48 -27.54)"/><path class="cls-1" d="M536.3,185a4.08,4.08,0,0,0,2.61-2.18l.22.22v1.75H542v.34h-2.82v6c0,1.07.46,1.77,1.43,1.77a2,2,0,0,0,1.38-.6l.19.19a3.11,3.11,0,0,1-2.33.94,2.18,2.18,0,0,1-2.44-2.3v-6h-1Z" transform="translate(-29.48 -27.54)"/><path class="cls-1" d="M542.93,193.25l1-.33V185.4l-1-.22V185l2.59-.28.22.24v8l1,.33v.17h-3.85Zm1.8-12a1.22,1.22,0,1,1,0,2.44,1.22,1.22,0,1,1,0-2.44Z" transform="translate(-29.48 -27.54)"/><path class="cls-1" d="M552.12,184.76a4.37,4.37,0,1,1-4.35,4.38A4.12,4.12,0,0,1,552.12,184.76Zm0,8.49c1.49,0,2.51-1.41,2.51-4.11s-1-4.12-2.51-4.12-2.51,1.41-2.51,4.12S550.64,193.25,552.12,193.25Z" transform="translate(-29.48 -27.54)"/><path class="cls-1" d="M560.28,192.92l.91.33v.17h-3.73v-.17l1-.33V185.4l-1-.22V185l2.59-.28.22.24-.05,1,.05.05a5.13,5.13,0,0,1,3.37-1.29c1.82,0,2.61,1.19,2.61,3v5.21l1,.33v.17h-3.73v-.17l.91-.33V188c0-1.49-.48-2.65-1.77-2.65a3.53,3.53,0,0,0-2.42,1.07Z" transform="translate(-29.48 -27.54)"/><path class="cls-1" d="M568.46,191.22h.36a2.36,2.36,0,0,0,2.53,2c1.32,0,2.22-.65,2.22-1.74s-.86-1.31-2.2-1.65-2.85-.76-2.85-2.6c0-1.44.88-2.51,3-2.51a4.77,4.77,0,0,1,2.2.52l.36-.29.17.17V187H574a2.24,2.24,0,0,0-2.32-2c-1.18,0-1.91.67-1.91,1.6s.77,1.24,1.92,1.56c1.51.46,3.13.93,3.13,2.8,0,1.46-1,2.53-3.38,2.53A5,5,0,0,1,569,193l-.36.29-.17-.17Z" transform="translate(-29.48 -27.54)"/><path class="cls-1" d="M65.54,33l-12-3.57V27.54H98.79v1.88L86.39,33,131.1,138.37l18.23-43.61h4.13L126,159h-6.2Z" transform="translate(-29.48 -27.54)"/><path class="cls-1" d="M157.4,156.21l5.06,1.78v.93h-19V158l5.3-1.78V81.13l-5.3-1.78v-.93h19v.93l-5.06,1.78Z" transform="translate(-29.48 -27.54)"/><path class="cls-2" d="M29.48,167s171.74,51.81,185.66-32C223,87.83,180.2,56.1,136.24,43.24,101.49,33.07,53.52,32,43,66c-17.67,57,89.8,94.12,121.41,60.4a37.39,37.39,0,0,0,8.33-15.6s-5.56,11.89-13.39,17.39c-13.49,9.5-57.45,6-87-12.63C46.63,99.33,35.3,68.4,58.08,49.15c11.41-9.64,52.15-13.89,104.37,16,47.31,27.09,52.61,50.59,50.8,62.18C204.36,184,112.94,182.27,66.53,170.48,58.72,168.49,29.48,167,29.48,167Z" transform="translate(-29.48 -27.54)"/><circle class="cls-1" cx="48.96" cy="65.17" r="13.24" transform="translate(-40 -18.11) rotate(-9.94)"/><polygon class="cls-1" points="38.7 11.58 57.8 7.56 62.89 19.54 43.98 23.84 38.7 11.58"/><path class="cls-1" d="M209.78,46.43l-6.26-1.86v-1H227.1v1l-6.46,1.86,23.29,54.89L267,46.43l-8.61-1.86v-1h17.42v1l-6.65,1.86-27.89,65.65h-3.23Z" transform="translate(-29.48 -27.54)"/><path class="cls-1" d="M291.21,62.77c14.58,0,24.66,9.78,24.66,24.95s-10.08,24.85-24.66,24.85S266.46,103,266.46,87.71,276.54,62.77,291.21,62.77Zm0,48.33c8.51,0,14.29-8,14.29-23.38s-5.77-23.48-14.29-23.48-14.28,8-14.28,23.48S282.8,111.1,291.21,111.1Z" transform="translate(-29.48 -27.54)"/><path class="cls-1" d="M323.13,66l-5.77-1.86v-1h22.31v1l-6,1.86,16,35.52L365.59,66l-8.12-1.86v-1H374v1L367.74,66,347,112.08c-5.87,13-9.79,19.76-16.54,19.76-3.33,0-8.61-1.56-8.61-7.14,0-3.52,2.05-5.38,5-5.38a5,5,0,0,1,5.28,5.38v3.91a2.21,2.21,0,0,0,1.08.29c3.82,0,7.44-7.24,11.25-15.95Z" transform="translate(-29.48 -27.54)"/><path class="cls-1" d="M405.83,105.91a25.68,25.68,0,0,1-17.51,6.75c-9.1,0-13.21-4.5-13.21-11.35,0-11.45,11.54-13.11,30.72-16.24v-9.2c0-6.75-3.62-11.45-10.17-11.45a12.6,12.6,0,0,0-7.24,2.25V74.6c0,4-2.54,6.46-6,6.46s-5.87-2.15-5.87-6.17c0-7.73,9.49-12,19.27-12C409,62.86,416,69.32,416,77.74v29.84c0,1.86.78,2.45,2.35,2.45a5,5,0,0,0,3.23-1.08l.68.68c-1.86,1.86-5,2.64-8.9,2.64-4.11,0-6.75-1.47-7.24-6.06Zm0-19.37c-13.8,2.15-20.35,2.94-20.35,13.5,0,6.07,3.13,9.2,8.12,9.2a17.39,17.39,0,0,0,12.23-5.58Z" transform="translate(-29.48 -27.54)"/><path class="cls-1" d="M463.87,66.19a14.32,14.32,0,0,1,7.34,12.72c0,9.69-8.41,15.75-20.55,15.75-5,0-9.39-1-12.72-2.94a10.4,10.4,0,0,0-2.74,6.75c0,3.62,2.45,5.38,7.73,5.38h16.53c11,0,15.66,4.4,15.66,12,0,10.18-9,16-27.1,16-12.42,0-20.06-2.84-20.06-8.71,0-4.31,3.91-7.83,9-10.76-4.5-1.27-6.85-4.3-6.85-9.29,0-4.7,2.25-7.83,6.65-12.13a14,14,0,0,1-6.56-12.13c0-9.78,8.41-15.95,20.45-15.95,1.17,0,2.35.1,3.52.19h20.55v1l-6.65,2.06ZM439.9,113c-3.13,3.52-3.81,5.77-3.81,8.22,0,6.95,5.38,9.1,14,9.1,11.45,0,18.79-3.82,18.79-10.37,0-3.62-2.25-6.75-8.42-6.75H442.83A26.09,26.09,0,0,1,439.9,113Zm10.76-19.76c6.36,0,10.86-4.89,10.86-14.38S457,64.43,450.66,64.43,439.9,69.32,439.9,78.81,444.4,93.19,450.66,93.19Z" transform="translate(-29.48 -27.54)"/><path class="cls-1" d="M491.46,87.62c0,13.7,6.26,21.92,19,21.92a19.11,19.11,0,0,0,14.38-5.77l1.08,1.17c-4.79,4.79-11.06,7.63-19.67,7.63-17,0-25.24-10.57-25.24-24.36,0-15.56,10.37-25.44,24.56-25.44,12.72,0,21.92,8,21.92,19.67a13.84,13.84,0,0,1-.49,3.92l-1.37,1.27Zm0-1.47,26-1.47c0-13.6-4.3-20.45-11.55-20.45C498.89,64.23,491.85,71,491.46,86.15Z" transform="translate(-29.48 -27.54)"/><path class="cls-1" d="M539.49,66.39l-5.87-1.27V64l14.77-1.57,1.27,1.37-.29,8.61.29.29s4.6-10,14.29-10c6.26,0,11.35,4.21,11.35,10.57,0,4.6-2.64,6.55-6,6.55-3.72,0-6.26-2.54-6.26-6.55V65.5a2.49,2.49,0,0,0-1.56-.39c-7.73,0-11.84,11.16-11.84,11.16v33l8.8,1.86v1H533.62v-1l5.87-1.86Z" transform="translate(-29.48 -27.54)"/><line class="cls-3" x1="200.26" y1="96.25" x2="288.32" y2="96.25"/><line class="cls-4" x1="317.1" y1="96.25" x2="394.01" y2="96.25"/><line class="cls-5" x1="449.15" y1="96.25" x2="545.48" y2="96.25"/><path class="cls-2" d="M237.13,171.71l3.07.94v.59H227.58v-.59l3.22-.94V140.19l-3.22-1v-.59H240.2v.59l-3.07,1Z" transform="translate(-29.48 -27.54)"/><path class="cls-2" d="M245.3,171.81V140.19l-3.22-1v-.59h9.85l18.66,25.83V140l-3.22-.94v-.49h7.52v.49l-3.22.94v33.2h-1.78l-23.5-32.51v31.08l3.22.94v.49h-7.52v-.49Z" transform="translate(-29.48 -27.54)"/><path class="cls-2" d="M278.29,165h.89c1.68,6.63,7.08,7.82,10.34,7.82,5.2,0,8.31-2.72,8.31-7.23s-3-5.39-8.31-7c-5.69-1.68-11.18-3.27-11.18-10.24,0-5.59,3.56-10,11.68-10a15.3,15.3,0,0,1,8.31,2.23l2.28-1.44.49.5v7.27h-.89c-1.63-6.53-6.48-7.82-9.45-7.82-4.6,0-7.37,2.82-7.37,6.68,0,4.11,3,5,7.72,6.53,6.09,2,11.78,4,11.78,10.94,0,5.84-3.81,10.34-12.82,10.34a17.18,17.18,0,0,1-9-2.23l-2.33,1.48-.49-.5Z" transform="translate(-29.48 -27.54)"/><path class="cls-2" d="M324.31,139.69v32l3.22.94v.59H314.66v-.59l3.22-.94v-32h-8.71l-2.52,5.25h-.84V138.6h30.63v6.33h-.84L333,139.69Z" transform="translate(-29.48 -27.54)"/><path class="cls-2" d="M358.1,157c1.68.54,2.72,2,3.61,3.61l6.23,11.23,3,.84v.59h-8.81l-8.76-16H348.4v14.45l3.22.94v.59H338.75v-.59l3.22-.94V139.89l-3.22-.79v-.49h15.44c7.52,0,12.67,3.51,12.67,9.4C366.86,152.8,363.54,156.12,358.1,157Zm-9.7-17.27v16.48h5c4,0,6.88-2.57,6.88-8.21s-2.87-8.26-6.88-8.26Z" transform="translate(-29.48 -27.54)"/><path class="cls-2" d="M400.6,160.38c0,8.21-5.64,13.16-13.76,13.16s-13.91-5-13.91-13.16V140.19l-3.22-1v-.59h12.87v.59l-3.22,1v20.19c0,7.27,4.26,10.89,9.9,10.89,6,0,10.24-4,10.24-10.89V140l-3.22-.94v-.49h7.52v.49l-3.22.94Z" transform="translate(-29.48 -27.54)"/><path class="cls-2" d="M447.21,171.71l3.07.94v.59H437.56v-.59l3.22-.94-2-27.91-12.57,29.44h-1.88l-12.77-29.49-2,28.06,3.07.94v.49h-7.37v-.49l3.22-.94,2.23-31.62-3.22-1v-.59H416l12,28.16,11.93-28.16H448v.59l-3.07,1Z" transform="translate(-29.48 -27.54)"/><path class="cls-2" d="M475.95,172.15l2.57-5.25h.84v6.33H451.7v-.49l3.22-.79V139.89l-3.22-.79v-.49h27.17v6.33H478l-2.57-5.25h-14.1v15.14h11.38l1.14-4.06h.79v9.15h-.79l-1.14-4H461.35v16.23Z" transform="translate(-29.48 -27.54)"/><path class="cls-2" d="M485.74,171.81V140.19l-3.22-1v-.59h9.85L511,164.43V140l-3.22-.94v-.49h7.52v.49l-3.22.94v33.2h-1.78l-23.5-32.51v31.08l3.22.94v.49h-7.52v-.49Z" transform="translate(-29.48 -27.54)"/><path class="cls-2" d="M536.16,139.69v32l3.22.94v.59H526.51v-.59l3.22-.94v-32H521l-2.52,5.25h-.84V138.6h30.63v6.33h-.84l-2.57-5.25Z" transform="translate(-29.48 -27.54)"/><path class="cls-2" d="M552.33,165h.89c1.68,6.63,7.08,7.82,10.34,7.82,5.2,0,8.31-2.72,8.31-7.23s-3-5.39-8.31-7c-5.69-1.68-11.18-3.27-11.18-10.24,0-5.59,3.56-10,11.68-10a15.3,15.3,0,0,1,8.31,2.23l2.28-1.44.5.5v7.27h-.89c-1.63-6.53-6.48-7.82-9.45-7.82-4.6,0-7.37,2.82-7.37,6.68,0,4.11,3,5,7.72,6.53,6.09,2,11.78,4,11.78,10.94,0,5.84-3.81,10.34-12.82,10.34a17.18,17.18,0,0,1-9-2.23l-2.33,1.48-.49-.5Z" transform="translate(-29.48 -27.54)"/></svg>